<?xml version="1.0" standalone="no"?>
<!DOCTYPE svg PUBLIC "-//W3C//DTD SVG 20010904//EN"
 "http://www.w3.org/TR/2001/REC-SVG-20010904/DTD/svg10.dtd">
<svg version="1.0" xmlns="http://www.w3.org/2000/svg"
 width="2000.000000pt" height="2000.000000pt" viewBox="0 0 2000.000000 2000.000000"
 preserveAspectRatio="xMidYMid meet">
<metadata>
Created by potrace 1.11, written by Peter Selinger 2001-2013
</metadata>
<g transform="translate(0.000000,2000.000000) scale(0.100000,-0.100000)"
fill="#000000" stroke="none">
<path d="M5700 15330 c-63 -9 -131 -23 -150 -30 -19 -7 -51 -18 -70 -25 -71
-25 -126 -47 -152 -61 -14 -8 -31 -14 -37 -14 -6 0 -41 -14 -78 -31 -38 -17
-81 -37 -98 -44 -111 -50 -257 -126 -363 -188 -35 -20 -65 -37 -67 -37 -5 0
-277 -181 -285 -190 -3 -3 -34 -27 -70 -54 -147 -112 -294 -244 -450 -403
-237 -243 -330 -355 -495 -598 -77 -114 -175 -271 -175 -280 0 -2 -19 -37 -42
-77 -24 -41 -57 -103 -75 -138 -45 -92 -123 -260 -123 -266 0 -3 -9 -26 -21
-52 -26 -60 -33 -77 -54 -132 -9 -25 -23 -59 -30 -75 -7 -17 -16 -45 -19 -62
-4 -18 -12 -35 -17 -38 -5 -4 -9 -15 -9 -27 0 -11 -6 -34 -13 -51 -16 -36 -38
-109 -91 -297 -31 -111 -45 -167 -61 -240 -9 -41 -23 -98 -31 -126 -8 -28 -14
-63 -14 -78 0 -15 -7 -55 -14 -89 -43 -184 -94 -588 -122 -962 -12 -176 -15
-337 -12 -800 4 -556 10 -702 43 -1045 32 -326 82 -707 117 -880 6 -30 14 -80
18 -110 9 -63 45 -243 84 -420 18 -85 34 -158 53 -250 36 -178 77 -339 118
-465 7 -22 20 -65 30 -95 9 -30 23 -72 31 -92 8 -21 21 -56 29 -78 32 -85 49
-127 77 -188 15 -34 28 -65 28 -68 0 -8 121 -250 148 -294 11 -19 30 -53 42
-75 32 -58 169 -261 225 -334 198 -255 449 -504 690 -682 100 -74 226 -160
255 -173 8 -3 29 -15 45 -25 44 -28 341 -175 405 -200 30 -12 64 -26 75 -30
40 -16 91 -33 120 -40 17 -4 40 -13 52 -19 12 -7 31 -12 42 -12 11 0 35 -6 53
-14 68 -28 164 -48 351 -71 513 -62 985 207 1366 780 422 636 661 1549 661
2525 0 1428 -518 2695 -1286 3149 -374 221 -814 221 -1188 0 -244 -144 -481
-391 -676 -701 -260 -415 -461 -1002 -549 -1603 -46 -311 -55 -453 -55 -845 0
-392 9 -534 55 -845 85 -579 276 -1151 521 -1556 61 -102 63 -105 33 -90 -112
55 -385 288 -527 451 -69 80 -248 314 -248 325 0 4 -13 24 -30 45 -17 21 -30
40 -30 43 0 3 -26 50 -58 104 -67 113 -146 272 -227 458 -12 28 -25 61 -59
153 -8 20 -21 55 -29 77 -8 22 -23 67 -32 100 -10 33 -24 75 -31 93 -8 18 -14
40 -14 50 0 9 -6 37 -14 62 -18 54 -39 140 -60 235 -9 39 -22 100 -31 137 -8
37 -15 76 -15 86 0 11 -6 42 -14 68 -8 27 -21 83 -30 124 -8 41 -22 107 -30
145 -8 39 -21 111 -30 160 -8 50 -21 117 -27 150 -6 33 -15 90 -19 127 -5 36
-13 84 -19 105 -6 21 -11 54 -11 73 0 19 -6 77 -14 130 -53 351 -106 1071
-106 1430 0 288 36 813 76 1110 38 283 101 622 150 805 7 28 20 79 30 115 31
121 46 175 59 210 31 88 37 107 45 135 10 37 29 89 47 132 7 17 13 36 13 42 0
6 7 27 16 48 9 21 22 52 29 68 7 17 23 55 35 85 39 96 177 384 210 440 5 8 47
78 92 154 46 76 90 149 98 162 187 283 400 532 623 729 143 125 445 343 562
405 11 6 34 19 50 29 31 20 151 85 245 132 111 56 238 112 355 156 22 8 47 19
57 24 15 7 157 55 265 89 30 9 71 11 140 6 238 -16 351 -26 388 -35 22 -6 56
-11 75 -11 19 0 67 -6 105 -14 39 -8 108 -23 155 -32 131 -26 201 -43 368 -91
80 -22 173 -52 197 -62 36 -15 89 -33 120 -40 17 -4 39 -12 50 -18 11 -5 36
-17 55 -25 19 -8 52 -22 73 -31 20 -9 52 -23 70 -30 30 -13 213 -104 275 -136
15 -8 53 -31 85 -53 32 -21 60 -38 62 -38 4 0 149 -96 170 -113 6 -4 38 -29
71 -56 34 -26 82 -63 106 -80 25 -18 98 -87 164 -154 172 -176 341 -409 403
-557 55 -131 140 -279 231 -401 68 -93 330 -359 412 -419 211 -154 402 -231
668 -272 113 -17 328 -16 470 1 172 22 1197 19 1365 -3 65 -9 151 -16 190 -16
38 0 117 -7 175 -15 58 -8 128 -14 155 -15 28 0 88 -6 135 -14 47 -8 123 -20
170 -26 47 -7 110 -16 141 -20 31 -4 79 -12 105 -18 27 -6 94 -18 149 -27 55
-10 120 -23 144 -31 25 -8 53 -14 64 -14 20 0 124 -22 212 -45 366 -96 393
-103 595 -170 158 -52 193 -64 212 -75 10 -6 23 -10 28 -10 11 0 91 -33 122
-50 10 -6 23 -10 30 -10 7 0 24 -6 38 -13 14 -7 48 -21 75 -31 42 -15 144 -63
415 -194 19 -9 85 -47 148 -84 62 -38 115 -68 117 -68 9 0 130 -74 133 -82 2
-4 8 -8 14 -8 5 0 20 -8 33 -17 12 -10 33 -25 45 -33 13 -8 57 -40 99 -70 42
-30 88 -63 102 -72 14 -9 32 -23 40 -30 8 -7 59 -49 113 -93 136 -108 341
-315 457 -460 122 -152 216 -283 222 -310 3 -11 15 -45 27 -75 12 -30 25 -71
29 -90 4 -19 12 -51 18 -70 25 -79 43 -171 43 -217 0 -26 7 -93 15 -147 19
-127 19 -330 0 -421 -8 -38 -15 -81 -15 -94 0 -13 -7 -49 -16 -80 -8 -31 -22
-81 -31 -111 -28 -101 -64 -190 -129 -325 -100 -204 -223 -376 -386 -538 -110
-109 -314 -268 -443 -346 -38 -23 -79 -47 -90 -54 -11 -7 -22 -15 -25 -18 -6
-6 -10 -9 -212 -112 -126 -65 -196 -97 -423 -192 -16 -7 -52 -20 -80 -30 -27
-9 -62 -23 -77 -31 -14 -8 -33 -14 -42 -14 -8 0 -30 -6 -48 -14 -18 -8 -76
-27 -128 -43 -89 -28 -128 -40 -267 -79 -32 -9 -78 -23 -102 -30 -25 -8 -55
-14 -68 -14 -14 0 -33 -5 -44 -11 -11 -6 -41 -14 -67 -19 -26 -5 -69 -14 -97
-20 -27 -6 -84 -18 -125 -27 -41 -8 -100 -21 -131 -29 -30 -8 -68 -14 -83 -14
-15 0 -66 -7 -114 -15 -83 -15 -166 -29 -367 -60 -153 -25 -328 -45 -380 -45
-27 0 -90 -7 -140 -15 -49 -8 -115 -15 -146 -15 -31 0 -81 -5 -110 -11 -30 -5
-142 -14 -249 -20 -107 -5 -247 -13 -310 -18 -63 -6 -170 -10 -236 -10 -129
-1 -120 1 -299 -76 -16 -8 -48 -21 -70 -30 -22 -9 -53 -22 -70 -30 -16 -7 -50
-21 -75 -30 -115 -44 -136 -63 -102 -93 30 -26 113 -131 151 -190 32 -50 36
-53 65 -46 17 4 47 13 66 22 53 23 96 41 135 57 19 8 50 21 68 29 163 70 138
65 420 77 144 5 285 12 312 14 28 2 118 8 200 14 83 6 193 15 245 21 225 25
291 32 399 41 63 5 140 13 170 18 31 5 103 17 161 26 131 20 255 41 340 56 36
6 92 15 125 19 57 7 83 13 217 46 32 8 67 14 79 14 12 0 45 6 73 14 28 8 79
22 114 30 135 34 189 49 227 61 22 7 69 20 105 30 36 9 81 23 100 30 19 7 85
29 145 48 61 20 135 45 165 57 30 12 66 25 80 30 14 4 63 24 110 44 460 198
755 377 1065 647 195 168 430 446 524 619 28 53 90 177 114 230 45 98 117 335
117 382 0 24 6 23 69 -8 181 -90 409 88 508 396 39 124 53 224 53 400 0 180
-9 249 -52 390 -54 178 -166 334 -284 395 -116 60 -246 32 -355 -77 l-48 -48
-15 27 c-28 54 -212 292 -313 404 -95 107 -287 299 -413 414 -110 100 -379
307 -468 360 -9 6 -33 22 -53 38 -20 15 -39 27 -42 27 -3 0 -49 26 -104 58
-54 32 -105 62 -113 65 -8 4 -37 21 -65 37 -86 52 -515 260 -535 260 -5 0 -26
7 -47 16 -65 29 -97 42 -143 59 -25 10 -57 23 -72 31 -14 8 -35 14 -45 14 -10
0 -23 4 -29 8 -5 5 -63 26 -129 47 -66 21 -134 44 -152 51 -17 8 -37 14 -45
14 -8 0 -34 6 -59 14 -60 19 -141 41 -219 62 -36 9 -87 22 -115 30 -27 7 -86
20 -130 29 -85 18 -159 35 -266 60 -36 8 -77 15 -91 15 -14 0 -56 6 -94 14
-216 45 -624 96 -874 111 -52 3 -126 10 -165 15 -161 22 -1281 33 -1550 15
-175 -11 -377 -10 -416 4 -21 6 -59 16 -85 20 -71 13 -163 46 -269 98 -319
157 -529 393 -714 805 -11 26 -21 49 -21 53 0 10 -112 179 -173 260 -145 193
-419 473 -578 591 -15 10 -62 46 -105 80 -44 33 -119 85 -167 115 -48 30 -100
62 -115 71 -69 42 -335 178 -350 178 -6 0 -23 6 -39 14 -15 7 -46 21 -68 31
-22 9 -52 24 -67 31 -14 8 -35 14 -45 14 -10 0 -27 6 -38 14 -11 7 -31 16 -45
19 -14 3 -56 16 -95 29 -101 35 -224 71 -350 101 -33 8 -82 21 -110 27 -27 7
-63 14 -80 17 -16 2 -64 10 -105 18 -379 71 -774 93 -1020 55z"/>
</g>
</svg>
